<?xml version="1.0" encoding="utf-8"?>
<!-- Generator: Adobe Illustrator 28.0.0, SVG Export Plug-In . SVG Version: 6.00 Build 0)  -->
<svg version="1.1" id="Layer_1" xmlns="http://www.w3.org/2000/svg" xmlns:xlink="http://www.w3.org/1999/xlink" x="0px" y="0px"
	 viewBox="0 0 24 24" style="enable-background:new 0 0 24 24;" xml:space="preserve">
<style type="text/css">
	.st0{fill:#00000;}
</style>
<path class="st0" d="M12,2C6.5,2,2,6.5,2,12s4.5,10,10,10s10-4.5,10-10S17.5,2,12,2z M12,4c4.4,0,8,3.6,8,8c0,0.5,0,0.9-0.1,1.4
	c-0.2-0.1-0.6-0.1-1-0.1c-0.3,0-0.7,0-1,0.1c0.1-0.3,0.2-0.7,0.2-1.1c0-1-0.5-1.9-1.2-2.6C17,8.9,17.2,7.5,16.7,7
	c-1.6,0-2.5,1.1-2.5,1.2c-0.5-0.1-1-0.2-1.5-0.2c-0.7,0-1.4,0.1-2,0.3l0.2-0.2c0,0-0.9-1.2-2.5-1.2C7.8,7.5,8,9,8.2,9.7
	C7.5,10.4,7,11.3,7,12.2c0,0.3,0.1,0.6,0.2,0.9c-0.3,0-1.3-0.1-1.7-0.1c-0.4,0-0.9,0.1-1.4,0.2C4,12.8,4,12.4,4,12C4,7.6,7.6,4,12,4
	z M5.5,13.3c0.4,0,1.6,0.1,1.8,0.2c0,0.1,0,0.1,0.1,0.2c-0.4,0-1.3-0.1-1.8,0c-0.4,0-0.8,0.2-1.2,0.3c0-0.1-0.1-0.2-0.1-0.4
	C4.6,13.4,5.1,13.3,5.5,13.3z M18.8,13.5c0.4,0,0.8,0.1,1,0.1c0,0.1,0,0.1-0.1,0.2c-0.3-0.1-0.7-0.1-1.2-0.2c-0.2,0-0.6,0-0.9,0
	c0,0,0-0.1,0-0.1C18.1,13.5,18.5,13.5,18.8,13.5z M6.1,13.8c0.6,0,1.1,0,1.3,0.1c0.5,1,1.6,1.7,3.2,2c-0.4,0.2-0.8,0.5-1,0.9
	c-0.2,0-0.5,0-0.7,0c-0.7,0-1.1-0.6-1.5-1.2C7,15.1,6.5,15,6.3,15c-0.3,0-0.4,0.1-0.2,0.2c0.8,0.6,1,1.3,1.3,1.9
	C7.7,17.7,8.3,18,8.9,18H9c0,0.1,0,0.2,0,0.3v1.1c-2.3-0.9-4.1-2.9-4.7-5.3c0.4-0.1,0.9-0.2,1.2-0.2C5.7,13.8,5.9,13.8,6.1,13.8z
	 M18.6,13.9c0.4,0,0.8,0.1,1.1,0.2c-0.6,2.1-1.9,3.8-3.7,4.8v-0.6c0-0.9-0.7-1.9-1.6-2.5c1.6-0.3,2.6-1,3.2-1.9
	C17.9,13.9,18.4,13.9,18.6,13.9z M12.5,18c0.3,0,0.5,0.2,0.5,0.5v1.4c-0.3,0-0.7,0.1-1,0.1v-1.5C12,18.2,12.2,18,12.5,18z M10.5,19
	c0.3,0,0.5,0.2,0.5,0.5v0.4c-0.3,0-0.7-0.1-1-0.2v-0.2C10,19.2,10.2,19,10.5,19z M14.5,19c0.2,0,0.5,0.2,0.5,0.4
	c-0.3,0.1-0.7,0.3-1,0.3v-0.2C14,19.2,14.2,19,14.5,19z"/>
</svg>
