<?xml version="1.0" encoding="utf-8"?>
<!-- Generator: Adobe Illustrator 28.0.0, SVG Export Plug-In . SVG Version: 6.00 Build 0)  -->
<svg version="1.1" id="Layer_1" xmlns="http://www.w3.org/2000/svg" xmlns:xlink="http://www.w3.org/1999/xlink" x="0px" y="0px"
	 viewBox="0 0 24 24" style="enable-background:new 0 0 24 24;" xml:space="preserve">
<style type="text/css">
	.st0{fill:#000000;}
	.st1{fill:#FFFFFF;}
</style>
<path class="st0" d="M3.8,0h16.4C22.3,0,24,1.7,24,3.8v16.4c0,2.1-1.7,3.8-3.8,3.8H3.8C1.7,24,0,22.3,0,20.2V3.8C0,1.7,1.7,0,3.8,0z
	"/>
<path class="st1" d="M12,4.1c-3.2,0-5.7,2.6-5.7,5.8c0,1.1,0.3,2.1,0.9,3L12,20l4.9-7.1c1.7-2.7,0.9-6.2-1.8-7.9
	C14.1,4.4,13.1,4.1,12,4.1z M12,11.9c-1.2,0-2.1-0.9-2.1-2.1c0-1.2,0.9-2.1,2.1-2.1c1.2,0,2.1,0.9,2.1,2.1c0,0,0,0,0,0
	C14.1,11,13.2,11.9,12,11.9z"/>
</svg>
