<?xml version="1.0" encoding="utf-8"?>
<!-- Generator: Adobe Illustrator 28.0.0, SVG Export Plug-In . SVG Version: 6.00 Build 0)  -->
<svg version="1.1" id="Layer_1" xmlns="http://www.w3.org/2000/svg" xmlns:xlink="http://www.w3.org/1999/xlink" x="0px" y="0px"
	 viewBox="0 0 24 24" style="enable-background:new 0 0 24 24;" xml:space="preserve">
<style type="text/css">
	.st0{fill:#00000;}
	.st1{fill:#FFFFFF;}
</style>
<path class="st0" d="M3.8,0h16.4C22.3,0,24,1.7,24,3.8v16.4c0,2.1-1.7,3.8-3.8,3.8H3.8C1.7,24,0,22.3,0,20.2V3.8C0,1.7,1.7,0,3.8,0z
	"/>
<path class="st1" d="M18.3,16.8L16.4,15c-0.7-0.6-1.7-0.6-2.4,0.1c0,0,0,0,0,0l-0.7,0.8c-0.2,0.2-0.4,0.2-0.6,0.1
	c-1.7-1.5-3.1-3.3-4-5.4c-0.1-0.2,0-0.5,0.2-0.6l0.9-0.5C10.7,9,11,8,10.6,7.2c0,0,0,0,0,0L9.4,4.9C9.1,4.3,8.3,4,7.7,4.3
	c-0.1,0-0.1,0.1-0.2,0.1C5.1,6.2,3.9,9.5,8.1,15.1s7.6,5.4,10,3.6c0.6-0.4,0.7-1.2,0.3-1.8C18.4,16.9,18.3,16.9,18.3,16.8z"/>
</svg>
