<?xml version="1.0" encoding="utf-8"?>
<!-- Generator: Adobe Illustrator 28.0.0, SVG Export Plug-In . SVG Version: 6.00 Build 0)  -->
<svg version="1.1" id="Layer_1" xmlns="http://www.w3.org/2000/svg" xmlns:xlink="http://www.w3.org/1999/xlink" x="0px" y="0px"
	 viewBox="0 0 24 24" style="enable-background:new 0 0 24 24;" xml:space="preserve">
<style type="text/css">
	.st0{fill:#00000;}
	.st1{fill:#FFFFFF;}
</style>
<path class="st0" d="M3.8,0h16.4C22.3,0,24,1.7,24,3.8v16.4c0,2.1-1.7,3.8-3.8,3.8H3.8C1.7,24,0,22.3,0,20.2V3.8C0,1.7,1.7,0,3.8,0z
	"/>
<path class="st1" d="M8.5,12.1c0-0.7,0-1.4,0.1-2H4.8c-0.4,1.3-0.4,2.7,0,4h3.8C8.6,13.4,8.5,12.8,8.5,12.1z"/>
<path class="st1" d="M10.4,4.8C8,5.3,5.9,7,5,9.3h3.7C8.9,7.7,9.4,6.1,10.4,4.8z"/>
<path class="st1" d="M13.6,19.4c2.4-0.5,4.5-2.3,5.4-4.6h-3.7C15.1,16.5,14.6,18,13.6,19.4z"/>
<path class="st1" d="M5,14.8c0.9,2.3,2.9,4,5.4,4.6c-1-1.4-1.5-2.9-1.7-4.6L5,14.8z"/>
<path class="st1" d="M19.2,10.1h-3.8c0.1,0.7,0.1,1.3,0.1,2c0,0.7,0,1.4-0.1,2h3.8C19.6,12.8,19.6,11.4,19.2,10.1z"/>
<path class="st1" d="M19,9.3c-0.9-2.3-2.9-4-5.4-4.6c0.9,1.4,1.5,2.9,1.7,4.6H19z"/>
<path class="st1" d="M14.5,9.3c-0.4-2.6-1.3-4.8-2.5-4.8S9.9,6.8,9.5,9.3H14.5z"/>
<path class="st1" d="M9.3,12.1c0,0.7,0,1.3,0.1,2h5.2c0.1-0.7,0.1-1.3,0.1-2c0-0.7,0-1.3-0.1-2H9.4C9.3,10.7,9.3,11.4,9.3,12.1z"/>
<path class="st1" d="M9.5,14.8c0.4,2.6,1.3,4.8,2.5,4.8s2.1-2.2,2.5-4.8L9.5,14.8z"/>
</svg>
