<?xml version="1.0" encoding="UTF-8"?><svg id="Layer_1" xmlns="http://www.w3.org/2000/svg" viewBox="0 0 362.01 530.66"><defs><style>.cls-1{fill:#000;stroke-width:0px;}</style></defs><path class="cls-1" d="M66.92,447.46c.54,10.35.58,20.75,1.73,31.03,2.1,18.81-1.85,36.06-11.3,52.17l-1.3-.33c.53-1.6.94-3.24,1.61-4.78,4.71-10.9,9.41-21.93,9.24-34.01-.22-15.25-1.21-30.5-1.95-45.74-.06-1.26-.49-2.69-1.22-3.71-12.78-17.89-17.6-38.81-22.73-59.61-.16-.64-.2-1.31-.42-1.92-.32-.91-.75-1.79-1.12-2.66-9.99,2.56-12.45-.03-14.27-8.9-1.39-6.77-.97-13.9-2.3-20.68-2.6-13.34-5.46-26.66-8.95-39.8-3.86-14.54-8.59-28.85-12.83-43.29-.4-1.35-.05-2.91.44-4.48,4.81,15.36,9.93,30.63,14.34,46.1,3.76,13.18,7.01,26.53,9.88,39.93,1.44,6.71,1.39,13.74,2.27,20.59,1.06,8.22,3.07,9.73,11.55,9.1-9.69-36.97-14.86-74.61-17.52-112.84-8.24-.09-12.59-6.26-17.96-11.18-1.46,1.32-2.72,2.46-4.11,3.71.96-6.8,3.63-7.01,12.2-.38-.45-8.72.14-16.92-1.51-24.64-2.43-11.39-1.83-22.7-1.58-34.08.17-7.82.93-15.64.85-23.45-.27-26.15,6.97-50.63,16.44-74.56,7.74-19.56,20.03-36.34,33.76-52.05,8.9-10.19,20.14-17.52,31.87-23.97C108.26,14.1,124.84,5.72,143,1.44,149.04.02,155.5.08,161.77,0c6.97-.08,13.95.51,20.93.72,23.28.69,46.38,2.28,68.45,10.89,13.87,5.41,25.83,13.71,37.26,22.99,11.95,9.71,23.71,19.71,31.76,33,5.41,8.92,9.72,18.54,14.21,28,9.34,19.66,14.45,40.74,19.45,61.75,5.72,24.03,4.44,48.34.81,72.61-1.11,7.38-1.41,14.88-2.05,22.02,2.42-.42,4.67-1.47,6.44-.93,1.54.47,2.54,2.72,2.89,4.97-1.24-1.13-2.49-2.26-3.94-3.58-5.43,4.75-9.67,11.15-18.01,11.1-2.67,38.23-7.83,75.9-17.53,112.88,9.12.8,10.51.65,11.5-10.47,3.04-34.27,14.19-66.39,24.62-98.74.69-2.14,1.21-4.33,1.81-6.49.55.15,1.1.31,1.66.46-2.32,7.9-4.74,15.78-6.94,23.71-4.74,17.03-9.91,33.97-13.85,51.19-2.41,10.55-2.52,21.6-4.32,32.31-1.55,9.25-4.41,12.18-14.5,9.38-2.13,8.02-4.31,16.03-6.37,24.07-4.03,15.72-9.99,30.58-20.45,43.19-4.72,5.69-10.3,10.64-15.39,16.02-10.39,10.99-20.85,21.91-31,33.11-6.35,7-13.67,12.28-22.48,15.67-8.85,3.41-17.34,8.07-26.44,10.44-11.48,2.99-23.49,2.67-35.28,1.02-7.4-1.03-14.67-2.92-22.05-4.08-7.95-1.26-13.87-6.13-19.1-11.39-17.84-17.95-35.23-36.34-52.76-54.59-1.19-1.24-2.13-2.71-3.19-4.07-.32.1-.63.19-.95.29ZM337.95,243.73c-1.14-13.68-1.61-28.43-3.79-42.92-2.38-15.85-7.5-31.05-13.86-45.88-5.2-12.13-10.21-23.86-19.87-33.56-12.12-12.17-25.36-21.87-42.19-25.87-5.39-1.28-11.08-1.27-16.63-1.9-14.54-1.66-28.9-1.54-43.08,2.95-5.38,1.7-11.29,3.37-16.74,2.83-11.01-1.1-21.83-3.92-32.79-5.66-15.17-2.41-30.33-1.19-45.24,1.83-11.84,2.39-22.55,7.95-31.66,15.9-12,10.46-23.16,21.68-28.03,37.58-1.34,4.36-3.32,8.54-5.08,12.77-8.12,19.54-13,39.94-13.83,61-1.06,26.82-.02,53.62,3.73,80.29,1.75,12.46,2.35,25.04,8.12,36.62,5.7,11.45,11.33,22.95,16.55,34.62,6.35,14.19,13.83,28.15,17.83,43.01,3.26,12.12,9.2,21.93,16.54,31.3,9.45,12.08,19.53,23.67,29.19,35.59,5.12,6.32,11.39,10.81,19.04,13.48,4.16,1.45,7.76,1.1,11.4-1.83,3.43-2.76,7.32-4.48,12.22-4.23,13.09.67,26.3,1.82,39.27.67,7.47-.66,12.95,1.11,18.77,4.75,1.69,1.06,4.29,1.43,6.31,1.1,12.97-2.15,20.24-12.03,27.88-21.26,7.7-9.3,15.38-18.63,22.8-28.16,6.08-7.82,13.31-15.15,15.16-25.41,3.29-18.26,12.13-34.19,20.25-50.49,6.21-12.47,13.07-24.83,17.38-37.98,3.78-11.51,5.04-23.99,6.3-36.15,1.85-17.91,2.72-35.92,4.09-55Z"/><path class="cls-1" d="M305.01,437.98c0,8.93-.6,17.9.14,26.77,1.17,14.08,2.68,28.2,5.22,42.09,1.01,5.51,5.13,10.46,7.9,15.63.7,1.3,1.62,2.49,2.08,3.94-7.89-5.71-11.32-14.03-13.28-23.08-3.92-18.09-4.44-36.46-4-54.88.08-3.43.78-6.85,1.2-10.28.25-.06.5-.13.75-.19Z"/><path class="cls-1" d="M95.35,417.33c.44-11.01,7.33-16.69,14.51-21.39,11.97-7.84,24.47-14.91,36.99-21.88,1.83-1.02,5.14-.26,7.42.6,4.24,1.6,8.12,4.17,12.38,5.72,1.77.65,4.35.22,6.16-.59,3.69-1.66,7.01-4.11,10.67-5.83,1.59-.75,4-1.29,5.44-.62,17.06,7.88,33.22,17.35,47,30.22,3.09,2.89,3.83,8.29,5.65,12.54-.47.35-.94.69-1.41,1.04-2.73-1.98-5.59-3.79-8.16-5.96-9.29-7.85-20.91-9.71-32.13-12.26-7.78-1.76-15.87-2.92-23.83-3.01-21.55-.24-42.31,4.01-62.04,12.87-6.07,2.72-12.09,5.56-18.64,8.58Z"/><path class="cls-1" d="M41.04,227.5c.02-6.01.54-12.07,6.13-16.51,2.33-1.85,4.42-4.05,6.34-6.33,5.87-6.95,13.78-8.52,22.19-8.39,15.02.24,29.61,2.93,43.64,8.43,5.17,2.03,10.53,3.67,15.43,6.2,2.22,1.15,4.17,3.78,5.17,6.18,6.68,16,12.57,32.11,11.19,50.08-.84,10.93-.08,21.97-.14,32.96-.06,11.86-.41,23.6-5.82,34.68-2.56,5.25-1.7,10.91,1.67,15.97l-1.27.72c-1.18-1.87-3.41-3.77-3.34-5.59.2-5.3,1.13-10.6,2.11-15.84,1.01-5.41,3.22-10.71,3.5-16.13.78-14.77,1.5-29.61.91-44.37-.39-9.73-2.15-19.65-5.02-28.95-2.51-8.14-7.75-14.59-17.71-16.13-6.98-1.08-13.55-4.59-20.41-6.69-15.63-4.79-31.04-2.37-46.19,2.25-6.16,1.88-11.99,4.82-18.41,7.45Z"/><path class="cls-1" d="M304.34,225.74l-1.08,4.26c-1.5-.67-3.02-1.3-4.49-2.02-6.26-3.05-12.5-6.14-18.75-9.2-10.52-5.14-21.45-2.31-32-.82-15.49,2.19-30.79,5.74-46.16,8.76-1.23.24-2.45,1.24-3.59,1.11-1.11-.13-3.04-1.33-2.99-1.92.37-4.56.93-9.13,1.91-13.6.25-1.14,2.02-2.36,3.34-2.78,15.12-4.89,30.09-10.46,45.52-14.1,9.52-2.25,19.8-2.6,29.07,3.12,7.14,4.41,14.87,7.89,21.78,12.61,4.71,3.22,7.42,8.35,7.46,14.6Z"/><path class="cls-1" d="M131.49,248.09c-5.32-3.24-9.51-5.79-12.58-7.67-3.09,5.16-5.1,10.85-9.05,14.35-2.83,2.5-8.24,2.74-12.51,2.81-6.17.1-10.19-6.62-10.41-16.76-3.72,2.19-7.31,4.04-10.53,6.39-.65.47-.5,3.5.3,4.21,2.92,2.61,6.27,4.73,9.27,7.62-6.16-2.8-12.32-5.6-19.06-8.65,10.92-16,26.99-18.21,43.93-16.41,8.18.87,16.17,4.23,20.65,14.1Z"/><path class="cls-1" d="M258.87,242.11c-7.14,17.63-15.9,16.7-24.15,14.46-5.37-1.46-10.16-8.15-8.3-17.91-4.4,1.75-8.52,3.39-12.64,5.02-.22-.26-.44-.53-.66-.79,1.33-1.25,2.45-3.11,4.03-3.64,8.21-2.78,16.34-6.38,25.32-5.48,13.51,1.36,25.3,6.38,35.54,17.61-6.47,2.5-12.2,4.72-17.94,6.94-.18-.4-.36-.81-.54-1.21,3.97-1.97,7.95-3.95,12.36-6.14-4.27-2.9-8.42-5.72-13.01-8.85Z"/><path class="cls-1" d="M187.78,465.82c-2.79,1.2-5.55,3.49-8.06,3.23-4.69-.48-9.24-2.46-14.01-.49-2.49-5.76-7.87-3.16-12.05-4.03,5.09-15.99,8.54-13.37,25.55-12.61,4.15.19,9.15,9.18,8.58,13.89Z"/><path class="cls-1" d="M123.26,416.95c31.48,6.27,63.06,7.26,94.83,2-31.9,9.25-63.49,6.85-94.83-2Z"/><path class="cls-1" d="M130.71,360.23c-7.87-3.58-7.42-14.87,1.23-23.76-1.79,8.2-8.76,15.69-1.23,23.76Z"/><path class="cls-1" d="M208.42,353.79c-.42-3.7-.57-7.9-1.46-11.94-.89-4-2.54-7.83-4.12-12.53,6.73,5.23,9.24,19.67,5.58,24.47Z"/><path class="cls-1" d="M153.73,360.53c7.32,3.32,13.47,5,19-.96-3.04,7.2-11.96,7.92-19,.96Z"/></svg>